<svg xmlns="http://www.w3.org/2000/svg" viewBox="0 0 128 128" width="128" height="128">
  <!-- WiFi signal bars -->
  <path fill="#4a90d9" d="M64 104a8 8 0 0 0 8 8 8 8 0 0 0-16 0 8 8 0 0 0 8 8zM48 88a8 8 0 0 0 8 8 8 8 0 0 0-16 0 8 8 0 0 0 8 8zM32 72a8 8 0 0 0 8 8 8 8 0 0 0-16 0 8 8 0 0 0 8 8zM16 56a8 8 0 0 0 8 8 8 8 0 0 0-16 0 8 8 0 0 0 8 8z"/>
  <path fill="#4a90d9" d="M48 64v32"/>
  <path fill="#4a90d9" d="M32 48v48"/>
  <path fill="#4a90d9" d="M16 32v64"/>
  <!-- QR code corners -->
  <rect x="80" y="8" width="24" height="24" fill="#4a90d9"/>
  <rect x="112" y="8" width="8" height="8" fill="#4a90d9"/>
  <rect x="80" y="32" width="8" height="8" fill="#4a90d9"/>
  <rect x="80" y="56" width="24" height="24" fill="#4a90d9"/>
  <rect x="112" y="56" width="8" height="8" fill="#4a90d9"/>
  <rect x="112" y="32" width="8" height="8" fill="#4a90d9"/>
  <rect x="96" y="40" width="16" height="16" fill="#4a90d9"/>
</svg>
