<svg xmlns="http://www.w3.org/2000/svg" width="350" height="350" viewBox="0 0 350 350"><path d="M617.5 1015.9a67 67 0 0 1-54.6-49.7 66 66 0 0 1 64.6-82.2c17.9 0 31.4 5.9 45 19.5 14 14 19.5 27.1 19.5 47a66 66 0 0 1-55 65 46 46 0 0 1-19.5.4M418.4 975c0-5.2.1-7.4.3-4.7.2 2.6.2 6.8 0 9.5-.2 2.6-.3.4-.3-4.8m-164.1-18.7c15.8-.2 41.6-.2 57.4 0 15.9.1 3 .2-28.7.2s-44.6 0-28.7-.2m96 0c3.7-.2 9.7-.2 13.4 0s.7.3-6.7.3-10.5-.1-6.7-.3m565 0c20.2-.2 53.2-.2 73.5 0 20.2.1 3.6.2-36.8.2s-57-.1-36.7-.2M876.5 876c0-43.2.1-60.8.2-39.2.2 21.5.2 56.9 0 78.5-.1 21.5-.2 3.9-.2-39.3m-458 36c0-11.8 0-16.7.2-10.7s.2 15.5 0 21.5c-.1 5.9-.3 1-.3-10.8m492.7-37.2c-.1-23 .1-41.9.5-42.1.7-.5.7 30.5 0 68.8-.1 8.3-.4-3.8-.5-26.7M418.3 876c0-3 .2-4.3.4-2.7s.2 4 0 5.5-.4.2-.4-2.8m117-11.3a695 695 0 0 1-26.2-23.6c-27-25.2-27.8-26.3-24.7-34.4 2.5-6.7 25.5-28 42.6-39.4 62.6-42 135.2-42.6 197.5-1.6 17.4 11.5 43.6 35.7 45.4 42q2.2 8-5.1 14.7L740.5 845c-11 10.3-21 19.2-22.2 19.8-3.7 2-10.7 1.5-14-1l-11-8c-40-29.4-88.2-30.6-128.3-3.2-5.2 3.5-11.4 8-13.8 10-3.6 2.8-5.2 3.4-9 3.4-2.6 0-5.7-.6-6.8-1.3M418.5 838c0-10.7.2-15.1.3-9.7.2 5.3.2 14 0 19.5-.1 5.3-.3 1-.3-9.8m-.3-22.6q0-1.7.6-.6.4 1.2-.1 2-.6.4-.5-1.4m.2-10.4c0-3 .2-4.3.4-2.7s.2 4 0 5.5-.4.2-.4-2.8m-4.4-11.7-3.4-3.8 3.8 3.4a34 34 0 0 1 3.7 3.8c0 .8-.8 0-4-3.4m424.1 1.2c1.3-1.4 2.6-2.5 2.8-2.5.3 0-.5 1.1-1.8 2.5a12 12 0 0 1-2.8 2.5c-.3 0 .5-1.1 1.8-2.5m-457.5-33.7-4-4.3 4.3 4c2.3 2.1 4.2 4 4.2 4.2 0 .8-.9 0-4.5-4m495.5-3.2q.1-.5 1.8-1.7 2.3-2 .3.4-2 2.5-2.1 1.3m-458-6.5a793 793 0 0 1-56.6-54.4 18 18 0 0 1 .8-11.4c2-3.8 29.9-31 43.6-42.3 80.7-67.3 179.1-95.7 274.5-79.4a363 363 0 0 1 171 82.4c15.1 13 38.1 35.8 40 39.6 2 4.3 2 9.3-.3 12.7-1 1.5-13.5 14-28 27.7-27.4 26.2-29 27.4-35.8 25.7-1.5-.4-8.6-6.6-16.6-14.7-46.2-46.1-90.8-69.1-152.3-78.4a277 277 0 0 0-61-.1 256 256 0 0 0-156.9 81 90 90 0 0 1-11.8 11.2c-3 1.6-7.2 1.7-10.6.4M288 624.4c-15.2-5.8-54.6-19.3-68.8-23.4-9.5-2.8-11.8-3.9-14.3-6.7l-2.9-3.4v-42c0-40.6 0-42.3 2-45.4 4-6.4 5-6.5 53.4-6.5 38.9 0 43.5-.2 44.7-1.6A426 426 0 0 1 483 393a514 514 0 0 1 143.1-19.4c111.7 0 209.2 30.4 288.3 90.2a504 504 0 0 1 33.8 28l5.7 5.2H997c41.4 0 43.5 0 47.4 2 7.8 3.8 7.7 2.9 7.3 50.7l-.3 42.3-3 3c-2.4 2.3-6.1 3.9-18 7.4-15.4 4.6-48 15.7-66.5 22.8l-10.4 4-5.5-6.4a715 715 0 0 0-48.5-48.4A416 416 0 0 0 574 476.6c-80.6 10-155.4 43-217.4 95.7a764 764 0 0 0-56.5 56.6c-.3 0-5.8-2-12.1-4.5m663.9-151.1q-2-2.4.4-.4 2.5 2 1.3 2.1-.5-.2-1.7-1.7M876.5 348c0-38.8.1-54.6.2-35.2.2 19.3.2 51 0 70.4-.1 19.4-.2 3.6-.2-35.2m35 6.5c0-22.5 0-32 .2-20.8.2 11 .2 29.5 0 41-.1 11.4-.2 2.3-.2-20.2m-493-29c0-24.7 0-34.7.2-22.2s.2 32.8 0 45c-.1 12.2-.2 2-.2-22.8m-.2-62.5c0-3 .2-4.3.4-2.7s.2 4 0 5.4c-.2 1.6-.4.3-.4-2.7m-.1-10.5q0-2.5.5-1.2c.2 1 .2 2.3 0 3q-.5.8-.5-1.8M185 239.6q.2-.5 1.8-1.7 2.3-2 .3.4t-2.1 1.3" style="fill:#0559e9" transform="matrix(.39326 0 0 .4477 -71.6 -105.2)"/><path d="M189.3 995.4q-3.2-1.7-5.3-5.8c-2-4.2-2-5.6-2-113.7 0-102.2.1-109.6 1.8-112.8 1-2 3-4.4 4.5-5.5 2.8-2 3.6-2.1 94.6-2.4l91.8-.2 21.6 21 21.7 21.2v95.1c0 92.7 0 95.3-2 98.4-4 6.7 3.3 6.3-115.7 6.3-96.3 0-108.1-.2-111-1.6M377 955c.6-1 1-32 1-79.1 0-64.3-.2-77.8-1.4-78.8-1-.8-22-1-77.2-.9l-75.9.3-.3 79c-.2 74.4-.1 79 1.5 80.3 1.5 1 16.5 1.2 76.6 1 65.2-.3 74.9-.5 75.7-1.8m-119-78.5V833l2.3-.5c1.2-.3 20.2-.4 42.2-.3l40 .3v87l-42.2.3-42.3.2zm585.3 119a14 14 0 0 1-5.3-4.7c-2-3.2-2-4.8-2-98.4v-95l21.4-21.2 21.4-21.2 92 .2c91.3.3 92 .3 94.9 2.4 1.5 1.1 3.6 3.6 4.5 5.5 1.7 3.2 1.8 10.6 1.8 113.2 0 106.9 0 109.9-2 113.6-3.8 7.6 4 7.1-116.2 7-89.9 0-107.8-.2-110.5-1.4m184.2-39.4 3-.6v-159l-75.9-.3c-55.2-.1-76.3 0-77.2 1-1.2.9-1.4 14.4-1.4 78.6 0 70.8.1 77.7 1.7 79.4s5 1.8 74.2 1.7c40 0 74-.4 75.6-.8m-115.3-79.9.3-43.7h83l.3 43.8.2 43.7h-84Zm-722.1-401c-2-1-4.4-3-5.5-4.5-2-2.8-2.1-3.4-2.4-112.5-.2-75.1 0-110.9.8-113.4.5-2 2.6-5 4.5-6.7l3.6-3.1h219.1l4 3.9 3.8 3.9v154.7l-20 10.1-20 10.2V348c0-52.9-.3-70-1.2-70.9-1-1-19.4-1.2-76.9-1.2-68 0-75.7.2-76.3 1.6-.3.9-.6 36.6-.6 79.4 0 70 .2 77.8 1.6 78.4.9.3 29 .6 62.7.7h61.2l-3 2.2-14.8 11.2a475 475 0 0 0-22.7 18.2l-10.8 9.3h-51.9c-47.3 0-52.1-.2-55.2-1.8M945 467a517 517 0 0 0-25.2-20.2L906 436.5l62.3-.5 62.2-.5v-159l-75.9-.3c-55.2-.1-76.3 0-77.2 1-1.2.8-1.4 13.2-1.4 70.9v69.8l-13.2-7a609 609 0 0 0-20-10l-6.8-3.2v-76.4c0-84.3-.3-80.3 6.3-84.3 3.1-2 5.9-2 111.6-2 107 0 108.4 0 111.6 2 6.8 4.2 6.5-2 6.5 119.9v109.8l-2.3 3.4c-4.7 7-3.2 6.9-61.2 6.8h-52zm-686.3-67.6c-.4-.3-.7-19.9-.7-43.4v-43l2.3-.5c1.2-.3 20.2-.4 42.2-.3l40 .3v87l-41.6.3c-22.8.1-41.8 0-42.2-.5m653.5-43 .3-43.8h83v87l-41.8.3-41.7.2z" style="fill:#0a182e" transform="matrix(.39326 0 0 .4477 -71.6 -105.2)"/></svg>